name Walk9.mot
datacolumns 19
datarows 12
range 1.18600000 1.19700000
endheader

                time	   L_ground_force_vx	   L_ground_force_vy	   L_ground_force_vz	   L_ground_force_px	   L_ground_force_py	   L_ground_force_pz	   R_ground_force_vx	   R_ground_force_vy	   R_ground_force_vz	   R_ground_force_px	   R_ground_force_py	   R_ground_force_pz	   L_ground_torque_x	   L_ground_torque_y	   L_ground_torque_z	   R_ground_torque_x	   R_ground_torque_y	   R_ground_torque_z	
          1.18600000	         -6.71091257	         62.08607484	         -5.13930829	          0.00179254	          0.00000000	          0.00041786	         -0.00000000	          0.00000000	         -0.00000000	          0.00000000	          0.00000000	          0.00000000	          0.00000000	          0.16930162	          0.00000000	          0.00000000	         -0.00000000	          0.00000000	
          1.18700000	         -7.19599307	         69.86628366	         -5.97609873	         -0.01271500	          0.00000000	         -0.00147230	         -0.00000000	          0.00000000	          0.00000000	          0.00000000	          0.00000000	          0.00000000	          0.00000000	          0.19187561	          0.00000000	          0.00000000	         -0.00000000	          0.00000000	
          1.18800000	         -7.73418887	         77.78840715	         -6.81997926	         -0.02716251	          0.00000000	         -0.00335603	         -0.00000000	          0.00000000	          0.00000000	          0.00000000	          0.00000000	          0.00000000	          0.00000000	          0.21526039	          0.00000000	          0.00000000	         -0.00000000	          0.00000000	
          1.18900000	         -8.32759524	         85.83803191	         -7.66886035	         -0.04150050	          0.00000000	         -0.00522714	         -0.00000000	          0.00000000	          0.00000000	          0.00000000	          0.00000000	          0.00000000	          0.00000000	          0.23944307	          0.00000000	          0.00000000	         -0.00000000	          0.00000000	
          1.19000000	         -8.97815423	         93.99968897	         -8.52058908	         -0.05568270	          0.00000000	         -0.00707976	         -0.00000000	          0.00000000	          0.00000000	          0.00000000	          0.00000000	          0.00000000	          0.00000000	          0.26440772	          0.00000000	          0.00000000	         -0.00000000	          0.00000000	
          1.19100000	         -9.68761935	        102.25688970	         -9.37296963	         -0.06966713	          0.00000000	         -0.00890855	         -0.00000000	          0.00000000	          0.00000000	          0.00000000	          0.00000000	         -0.00000000	          0.00000000	          0.29013535	          0.00000000	          0.00000000	         -0.00000000	          0.00000000	
          1.19200000	        -10.45751739	        110.59221687	        -10.22378429	         -0.08341617	          0.00000000	         -0.01070869	         -0.00000000	          0.00000000	          0.00000000	         -0.00000000	          0.00000000	         -0.00000000	          0.00000000	          0.31660386	          0.00000000	          0.00000000	         -0.00000000	          0.00000000	
          1.19300000	        -11.28910695	        118.98748607	        -11.07081463	         -0.09689633	          0.00000000	         -0.01247591	         -0.00000000	          0.00000000	          0.00000000	         -0.00000000	          0.00000000	         -0.00000000	          0.00000000	          0.34378808	          0.00000000	          0.00000000	         -0.00000000	          0.00000000	
          1.19400000	        -12.18333342	        127.42398927	        -11.91186262	         -0.11007800	          0.00000000	         -0.01420641	         -0.00000000	          0.00000000	          0.00000000	         -0.00000000	          0.00000000	         -0.00000000	          0.00000000	          0.37165986	          0.00000000	          0.00000000	         -0.00000000	          0.00000000	
          1.19500000	        -13.14078150	        135.88281933	        -12.74477070	         -0.12293523	          0.00000000	         -0.01589692	         -0.00000000	          0.00000000	          0.00000000	         -0.00000000	          0.00000000	         -0.00000000	          0.00000000	          0.40018816	          0.00000000	          0.00000000	         -0.00000000	          0.00000000	
          1.19600000	        -14.16162779	        144.34525739	        -13.56743965	         -0.13544554	          0.00000000	         -0.01754457	         -0.00000000	          0.00000000	          0.00000000	         -0.00000000	          0.00000000	         -0.00000000	          0.00000000	          0.42933911	          0.00000000	          0.00000000	         -0.00000000	          0.00000000	
          1.19700000	        -15.24559711	        152.79318724	        -14.37784352	         -0.14758965	          0.00000000	         -0.01914695	         -0.00000000	          0.00000000	          0.00000000	         -0.00000000	          0.00000000	         -0.00000000	          0.00000000	          0.45907624	          0.00000000	          0.00000000	         -0.00000000	          0.00000000	
